<?xml version="1.0" standalone="no"?>
<!DOCTYPE svg PUBLIC "-//W3C//DTD SVG 20010904//EN"
 "http://www.w3.org/TR/2001/REC-SVG-20010904/DTD/svg10.dtd">
<svg version="1.0" xmlns="http://www.w3.org/2000/svg"
 width="1280.000000pt" height="905.000000pt" viewBox="0 0 1280.000000 905.000000"
 preserveAspectRatio="xMidYMid meet">
<metadata>
Created by potrace 1.16, written by Peter Selinger 2001-2019
</metadata>
<g transform="translate(0.000000,905.000000) scale(0.100000,-0.100000)"
fill="#000000" stroke="none">
<path d="M6935 8236 c-173 -25 -340 -92 -517 -209 -47 -31 -107 -81 -132 -110
-25 -28 -75 -86 -111 -127 -36 -41 -75 -94 -87 -118 -20 -39 -21 -46 -9 -89 7
-26 29 -70 50 -98 48 -64 45 -59 85 -153 l35 -81 -53 -29 c-130 -74 -194 -221
-167 -383 16 -98 15 -102 -29 -155 -45 -54 -48 -66 -22 -92 9 -9 28 -61 41
-115 14 -53 33 -111 43 -128 19 -31 19 -31 82 -24 94 10 132 -1 181 -50 58
-57 88 -137 88 -235 0 -95 -20 -148 -135 -341 -108 -183 -208 -381 -242 -484
-38 -116 -35 -115 -97 -53 -42 43 -87 71 -209 132 -204 103 -304 174 -351 251
-25 40 -24 63 6 127 15 32 25 71 25 99 l0 46 -82 55 c-116 76 -125 81 -147 69
-27 -15 -118 -132 -136 -175 -30 -71 -13 -143 53 -229 51 -66 307 -303 474
-439 69 -57 173 -145 229 -196 111 -99 200 -152 258 -152 36 0 95 29 119 59
28 35 65 95 74 123 9 25 7 33 -15 56 -33 36 -64 99 -71 147 -6 34 -3 30 19
-25 30 -76 58 -105 113 -113 55 -9 146 -73 233 -164 114 -120 155 -223 220
-546 10 -54 19 -102 19 -106 0 -4 -33 -20 -72 -36 -237 -92 -679 -348 -859
-498 -177 -148 -329 -422 -305 -550 13 -72 62 -110 261 -206 224 -109 379
-196 562 -317 l142 -94 -47 -82 c-48 -84 -91 -132 -248 -274 -111 -101 -167
-139 -258 -176 -82 -34 -101 -49 -128 -102 -34 -66 -23 -133 45 -268 45 -88
62 -137 80 -223 28 -132 44 -164 112 -230 58 -57 108 -85 152 -85 33 0 108 24
196 63 54 24 57 28 57 61 0 33 -5 39 -80 88 -103 67 -126 107 -117 206 20 236
216 514 491 698 59 40 65 42 79 26 31 -35 40 -92 33 -201 -8 -139 -28 -229
-71 -319 -39 -83 -44 -131 -17 -155 24 -22 57 -21 107 2 80 36 137 123 189
292 42 138 70 179 168 252 88 66 106 85 114 123 13 66 -96 174 -212 211 -30 9
-54 19 -54 23 0 17 223 200 244 200 7 0 10 -29 8 -83 -3 -67 2 -102 22 -173
36 -124 31 -259 -15 -419 -52 -175 -80 -258 -112 -328 -45 -96 -62 -164 -53
-210 6 -32 14 -41 56 -62 43 -22 62 -25 157 -25 125 0 220 -18 291 -54 109
-55 196 -77 331 -83 169 -7 180 -6 207 12 35 22 30 49 -18 94 -49 47 -136 94
-271 146 -175 67 -258 139 -288 250 -16 58 -6 248 15 280 9 13 16 35 16 48 0
41 84 287 99 287 3 0 45 -28 92 -63 99 -72 301 -277 508 -517 218 -252 271
-343 271 -461 0 -61 -25 -191 -42 -218 -7 -12 -57 -44 -110 -72 -100 -51 -118
-68 -118 -113 0 -22 6 -26 58 -37 88 -19 287 1 358 36 65 32 82 58 124 191 34
108 45 124 142 206 64 54 93 106 84 151 -14 70 -101 141 -250 203 -63 27 -95
47 -128 82 -64 68 -158 213 -255 391 -159 290 -219 364 -408 501 -50 35 -109
79 -131 98 l-42 34 29 112 c17 65 52 159 85 227 66 139 73 186 51 325 -17 105
-29 211 -52 470 -20 213 -20 198 9 179 22 -15 27 -15 56 0 17 9 49 34 71 57
33 34 39 47 39 83 0 38 -7 50 -70 121 -39 43 -82 101 -95 128 -24 47 -25 59
-25 225 0 272 -36 712 -65 806 -5 18 0 23 43 33 27 7 77 30 111 52 l63 38 61
-49 c131 -105 435 -236 613 -263 56 -8 107 -23 138 -40 83 -44 121 -34 207 56
121 125 165 215 269 538 71 220 84 254 149 374 25 46 31 70 31 118 0 68 -16
105 -63 145 -19 15 -62 61 -96 100 -34 40 -72 78 -84 84 -37 20 -110 12 -178
-19 -74 -34 -103 -62 -117 -114 -16 -59 1 -79 92 -109 43 -15 97 -40 119 -56
37 -26 42 -34 39 -64 -6 -81 -69 -197 -143 -265 -25 -22 -95 -66 -157 -97
l-113 -56 -10 27 c-39 102 -95 158 -190 189 l-63 21 -20 63 c-43 131 -135 242
-245 296 -51 26 -66 28 -168 28 -61 0 -115 3 -119 8 -4 4 20 7 54 7 53 0 66 4
94 29 18 15 47 35 64 44 42 22 53 38 62 88 7 43 9 44 50 50 63 8 69 19 49 82
-23 72 -22 104 3 112 33 10 70 63 70 100 0 62 4 65 91 65 46 0 79 4 79 10 0 6
-4 10 -10 10 -16 0 -12 30 5 36 13 5 13 9 0 34 -8 16 -15 39 -15 52 0 15 -11
29 -31 40 -18 11 -29 25 -28 35 3 19 -72 103 -91 103 -5 0 -10 16 -10 35 0 30
-5 37 -45 61 -25 14 -45 32 -45 38 0 19 -147 85 -216 97 -32 6 -73 14 -90 19
-27 6 -50 -2 -152 -50 -153 -74 -185 -105 -241 -237 -69 -164 -134 -222 -262
-231 l-66 -4 -55 73 c-121 163 -267 270 -422 310 -58 15 -76 25 -110 62 -23
24 -60 54 -84 66 l-43 22 18 30 c31 53 183 252 226 297 38 39 45 43 76 37 51
-10 78 -32 97 -80 20 -53 50 -82 101 -100 33 -11 41 -20 58 -65 24 -63 45 -74
129 -67 107 10 147 64 154 213 5 103 -14 188 -53 240 -57 75 -397 131 -610
100z m128 -4715 l-23 -19 29 -89 c16 -48 43 -121 60 -162 17 -41 31 -89 31
-107 0 -33 -1 -33 -85 -59 -131 -40 -255 -108 -339 -186 -39 -36 -78 -78 -85
-93 -8 -14 -19 -26 -25 -26 -6 0 -38 33 -71 73 -93 113 -193 207 -286 270 -48
32 -94 66 -104 77 -16 17 -15 19 7 34 13 9 103 34 199 56 214 49 261 65 469
153 158 67 229 95 240 96 3 0 -5 -8 -17 -18z"/>
</g>
</svg>
